Fly_normalized_Motion_pl05
version=1
nRows=18
nColumns=43
inDegrees=yes
endheader
time		pelvis_tilt		pelvis_list		pelvis_rotation		pelvis_tx		pelvis_ty		pelvis_tz		hip_flexion_r		hip_adduction_r		hip_rotation_r		knee_angle_r		ankle_angle_r		subtalar_angle_r		mtp_angle_r		hip_flexion_l		hip_adduction_l		hip_rotation_l		knee_angle_l		ankle_angle_l		subtalar_angle_l		mtp_angle_l		lumbar_extension		lumbar_bending		lumbar_rotation		neck_flexion		neck_lateral_bending		neck_rotation		arm_flex_r		arm_add_r		arm_rot_r		elbow_flex_r		pro_sup_r		wrist_flex_r		wrist_dev_r		hand_finger_flex_r		arm_flex_l		arm_add_l		arm_rot_l		elbow_flex_l		pro_sup_l		wrist_flex_l		wrist_dev_l		hand_finger_flex_l		
0.560000		2.982545		-22.815347		96.649360		0.030068		1.775168		1.473540		62.487392		-11.710775		1.139793		-121.990980		-1.391883		-1.549814		-10.961545		67.546439		-10.708826		7.412803		-124.163286		9.280583		-9.545238		-14.015813		-27.026854		3.412423		-0.941758		17.502301		1.115494		4.214055		123.507772		-20.990702		54.956995		60.216573		67.745085		-25.032777		-16.640237		55.715788		133.357873		-20.175743		76.501713		63.659166		65.836978		-43.153241		5.437481		74.047059		
0.564015		3.305172		-22.614780		96.837506		0.030136		1.775209		1.466529		62.968380		-11.400776		0.621278		-121.765285		0.736916		-0.845924		-9.638483		68.268965		-10.727223		7.625330		-124.199325		9.792747		-10.616195		-14.348561		-27.294580		3.691208		-0.915206		17.624187		1.342175		4.394323		123.453280		-21.237300		55.168873		60.289609		67.881745		-25.196769		-16.616648		55.622177		133.914764		-20.370859		77.590127		63.844743		66.291293		-42.901277		5.070610		74.007922		
0.568030		3.479441		-22.444745		97.015032		0.029753		1.775225		1.459496		63.532563		-11.311263		0.265393		-121.467317		2.260864		0.013405		-6.843891		68.973947		-10.566455		7.620772		-124.135210		9.880715		-12.223038		-15.183747		-27.536303		3.948358		-1.028467		17.672938		1.343481		4.521703		123.314256		-21.363187		55.301756		60.425620		68.282918		-25.444772		-16.249526		55.433201		134.199785		-20.781046		78.193664		64.253207		67.470985		-42.601278		5.117704		74.184739		
0.572045		3.639740		-22.307667		97.063706		0.029789		1.774942		1.452792		64.255683		-11.048142		-0.073722		-121.165801		3.463851		-0.072185		-5.250628		69.775563		-10.531397		7.620264		-124.111949		10.041622		-13.616585		-15.583121		-27.797942		4.079225		-0.993959		17.914692		1.409257		4.551392		123.165828		-21.491201		55.267177		60.403988		68.600808		-25.594899		-15.947865		55.321361		134.487447		-20.986180		78.684103		64.463090		68.601970		-42.317667		5.266191		74.373694		
0.576061		3.734160		-22.172496		97.124299		0.029596		1.774657		1.445925		64.989571		-10.894919		-0.386867		-120.789573		4.293532		-0.408492		-3.893368		70.525093		-10.412351		7.525911		-124.043632		10.388545		-14.854998		-15.885158		-28.047444		4.196021		-1.029236		17.989905		1.482724		4.562645		122.888271		-21.672301		55.189891		60.539617		68.953594		-25.734825		-15.630589		55.217146		134.541046		-21.322326		78.870929		64.867013		69.700046		-42.076247		5.426087		74.608623		
0.580076		3.819711		-22.048307		97.183164		0.029304		1.774238		1.439335		65.799105		-10.765500		-0.665280		-120.385758		4.928365		-0.872961		-2.587401		71.346670		-10.261047		7.404338		-123.977582		10.821016		-15.969125		-16.160254		-28.323516		4.315508		-1.056194		18.232954		1.537529		4.586620		122.586299		-21.782570		54.961923		60.559815		69.316258		-25.914478		-15.269038		55.082362		134.517639		-21.577749		78.867389		65.118548		70.821885		-41.879848		5.639964		74.842162		
0.584091		3.935931		-22.039172		97.233991		0.029114		1.773491		1.432811		66.784884		-10.598137		-1.016399		-119.945691		5.286300		-1.806750		-1.104970		72.363237		-10.115293		7.302677		-123.902407		11.171795		-16.831584		-16.518993		-28.470210		4.429680		-1.073850		18.372630		1.628431		4.634827		122.097221		-21.923275		54.502302		60.734228		69.938272		-26.176143		-14.698411		54.855078		134.373219		-21.891516		78.703076		65.467178		72.494095		-41.626388		6.019674		75.215334		
0.588106		3.959374		-21.826204		97.250554		0.028770		1.773048		1.426201		67.555137		-10.496958		-1.298262		-119.484791		5.951826		-2.341531		-0.805274		73.091727		-9.930885		7.109671		-123.789824		12.022940		-17.239323		-16.510984		-28.901477		4.492780		-1.041868		18.687914		1.718741		4.593308		121.729916		-22.174835		54.199649		60.865809		70.110578		-26.316229		-14.580472		54.755451		134.236003		-22.154291		78.529755		65.802343		72.970720		-41.585010		6.055307		75.335009		
0.592121		4.126571		-21.990897		97.356205		0.028680		1.771714		1.419765		68.791569		-10.350246		-1.775893		-118.979602		6.203125		-3.551915		-0.415634		74.388355		-9.761758		7.120931		-123.687413		12.715645		-17.102772		-16.741046		-28.814741		4.613109		-1.090243		18.675129		1.913825		4.698517		120.836742		-22.347304		53.298571		61.236759		71.117230		-26.887766		-13.746171		54.275079		133.752451		-22.452169		78.007212		66.144986		74.985348		-41.498176		6.569945		75.792060		
0.596136		4.163803		-21.776456		97.377894		0.028310		1.771026		1.413266		69.631404		-10.250733		-2.131939		-118.438540		6.841515		-3.906514		-0.282651		75.173331		-9.539513		6.931037		-123.476043		13.588985		-17.216131		-16.756723		-29.278219		4.689889		-1.035838		19.078459		2.043258		4.646210		120.355086		-22.624817		52.802359		61.413555		71.446405		-27.021955		-13.540545		54.102092		133.424609		-22.727156		77.526414		66.500232		75.550654		-41.508630		6.741128		75.956646		
0.600152		4.339015		-21.869138		97.562726		0.028097		1.769540		1.406754		70.797364		-10.204570		-2.659838		-117.869889		7.490928		-4.148461		-0.366260		76.395435		-9.256881		7.054349		-123.270323		14.621956		-16.185769		-16.922826		-29.260357		4.852586		-1.041862		19.025340		2.211405		4.686201		119.234496		-22.905120		51.575747		61.905856		72.725091		-27.503518		-12.711678		53.433941		132.624545		-22.921834		76.587077		66.826293		77.388586		-41.585835		7.493605		76.333642		
0.604167		4.358844		-21.619014		97.581263		0.027764		1.768701		1.400270		71.626381		-10.130637		-3.078997		-117.209382		8.215628		-4.204557		-0.358723		77.135287		-8.976812		6.880201		-122.916052		15.420639		-16.161274		-16.909887		-29.816863		4.915751		-1.004272		19.601263		2.365643		4.622408		118.655010		-23.227123		50.926532		62.193107		72.999476		-27.616357		-12.614355		53.227239		132.207221		-23.302309		75.946175		67.330166		77.766543		-41.670361		7.602838		76.432223		
0.608182		4.553431		-21.649414		97.833703		0.027412		1.766995		1.393780		72.741883		-10.150865		-3.637849		-116.542335		9.036029		-3.620914		-0.453285		78.285747		-8.570574		7.072506		-122.568144		16.409284		-14.881301		-16.993668		-29.864415		5.145592		-1.018803		19.534015		2.527486		4.663769		117.412504		-23.462448		49.515329		62.639116		74.447909		-28.005516		-11.827814		52.461938		131.236203		-23.497718		74.829126		67.692404		79.480454		-41.829866		8.421314		76.685032		
0.612197		4.688928		-21.545598		98.022979		0.027040		1.765498		1.387284		73.712277		-10.183667		-4.174677		-115.790140		9.845291		-2.971405		-0.401618		79.230881		-8.144846		7.187014		-122.115141		17.245540		-13.989980		-17.021243		-30.140364		5.338783		-1.056119		19.732188		2.718000		4.621590		116.285408		-23.635101		48.146824		63.005057		75.619422		-28.175078		-11.241906		51.844588		130.312309		-23.835037		73.652934		68.202133		80.816273		-41.948393		9.059547		76.850862		
0.616212		4.801328		-21.448238		98.138126		0.026769		1.763923		1.380799		74.703657		-10.150187		-4.697547		-114.955052		10.507108		-2.439310		-0.204096		80.123875		-7.744146		7.246825		-121.559103		18.007951		-13.331594		-17.044286		-30.480879		5.509075		-1.011568		20.154658		2.757404		4.640309		115.231469		-23.914449		46.840123		63.548744		76.946218		-28.028621		-10.670023		51.270468		129.440618		-24.304610		72.471118		68.943152		82.275525		-41.882780		9.738586		77.036066		
0.620227		4.892744		-21.267215		98.307055		0.026421		1.762416		1.374186		75.558714		-10.188750		-5.214128		-114.048950		11.097084		-1.790926		0.057105		80.911109		-7.282848		7.329941		-120.930287		18.624901		-12.543714		-17.066239		-30.877634		5.690152		-1.056746		20.416446		2.837000		4.623378		113.955361		-24.076111		45.289791		64.047995		78.046254		-28.048903		-10.175606		50.684919		128.423992		-24.784601		71.203598		69.691936		83.580135		-41.886091		10.322546		77.145696		
0.624242		5.054118		-21.195204		98.608704		0.025984		1.760400		1.367575		76.492611		-10.345672		-5.755331		-113.125768		11.849517		-0.577142		0.679814		81.827063		-6.718736		7.582722		-120.267493		19.468002		-11.130115		-17.051869		-31.048059		5.976865		-1.184004		20.363402		2.913908		4.704787		112.348319		-24.005335		43.372878		64.446875		79.569821		-28.374391		-9.595784		50.138301		127.101456		-25.225632		69.714854		70.373473		85.372977		-41.898834		10.952816		77.185695		
0.628258		5.126123		-21.029083		98.750692		0.025676		1.758642		1.361048		77.337975		-10.371687		-6.220070		-112.079363		12.249396		0.095466		1.205530		82.564732		-6.245516		7.661167		-119.482641		20.048512		-10.338043		-17.077411		-31.481621		6.150240		-1.195065		20.910767		2.931436		4.724449		111.015728		-24.073948		41.750317		64.936110		80.494749		-28.625096		-9.275179		49.934935		126.014354		-25.753462		68.391474		71.214429		86.607149		-41.866600		11.298159		77.288055		
